<?xml version="1.0" encoding="UTF-8"?>
<svg width="1421px" height="353px" viewBox="0 0 1421 353" version="1.1" xmlns="http://www.w3.org/2000/svg" xmlns:xlink="http://www.w3.org/1999/xlink">
    <!-- Generator: Sketch 43.2 (39069) - http://www.bohemiancoding.com/sketch -->
    <title>narvar-logo</title>
    <desc>Created with Sketch.</desc>
    <defs></defs>
    <g id="Page-1" stroke="none" stroke-width="1" fill="none" fill-rule="evenodd">
        <g id="narvar-logo" fill-rule="nonzero" fill="#FFFFFF">
            <path d="M176.3,0 C78.9,0 0,78.9 0,176.3 C0,273.7 78.9,352.6 176.3,352.6 C273.7,352.6 352.6,273.7 352.6,176.3 C352.6,78.9 273.7,0 176.3,0 Z M297.7,176.1 C297.7,215.9 265.5,248.1 225.7,248.1 L184.3,248.1 C179.7,248.1 176,244.4 176,239.8 L176,176.1 C176,152 156.4,132.4 132.3,132.4 C108.2,132.4 88.6,152 88.6,176.1 L88.6,239.8 C88.6,244.4 84.9,248.1 80.3,248.1 L68.7,248.1 C64.1,248.1 60.4,244.4 60.4,239.8 L60.4,176.1 C60.4,136.3 92.6,104.1 132.4,104.1 C172.2,104.1 204.4,136.3 204.4,176.1 L204.4,219.8 L225.7,219.8 C249.8,219.8 269.4,200.2 269.4,176.1 L269.4,112.4 C269.4,107.8 273.1,104.1 277.7,104.1 L289.5,104.1 C294.1,104.1 297.8,107.8 297.8,112.4 L297.8,112.9 L297.7,176.1 L297.7,176.1 Z" id="Shape"></path>
            <path d="M512,104.1 C472.2,104.1 440,136.3 440,176.1 L440,243.9 C440,246.2 441.9,248.1 444.2,248.1 L450.3,248.1 C452.6,248.1 454.5,246.2 454.5,243.9 L454.5,176.1 C454.5,144.4 480.2,118.6 512,118.6 C543.8,118.6 569.5,144.3 569.5,176.1 L569.5,243.9 C569.5,246.2 571.4,248.1 573.7,248.1 L579.8,248.1 C582.1,248.1 584,246.2 584,243.9 L584,176.1 C584,136.3 551.8,104.1 512,104.1 L512,104.1 Z M745.4,243.8 L745.4,176 C745.4,136.2 713.2,104 673.4,104 C633.6,104 601.4,136.2 601.4,176 C601.4,215.8 633.6,248 673.4,248 C696.9,248 717.7,236.8 730.9,219.4 L730.9,243.8 C730.9,246.1 732.8,248 735.1,248 L741.2,248 C743.5,248.1 745.4,246.2 745.4,243.8 L745.4,243.8 Z M673.4,233.5 C641.7,233.5 615.9,207.8 615.9,176 C615.9,144.3 641.6,118.5 673.4,118.5 C705.2,118.5 730.9,144.2 730.9,176 C730.9,207.8 705.2,233.5 673.4,233.5 Z M1212.3,176.1 C1212.3,136.3 1180.1,104.1 1140.3,104.1 C1100.5,104.1 1068.3,136.3 1068.3,176.1 C1068.3,215.9 1100.5,248.1 1140.3,248.1 C1163.8,248.1 1184.6,236.9 1197.8,219.5 L1197.8,243.9 C1197.8,246.2 1199.7,248.1 1202,248.1 L1208.1,248.1 C1210.4,248.1 1212.3,246.2 1212.3,243.9 L1212.3,176.1 Z M1140.3,233.5 C1108.6,233.5 1082.8,207.8 1082.8,176 C1082.8,144.3 1108.5,118.5 1140.3,118.5 C1172,118.5 1197.8,144.2 1197.8,176 C1197.8,207.8 1172,233.5 1140.3,233.5 Z M1050.9,108.3 C1050.9,106 1049,104.1 1046.7,104.1 L1040.6,104.1 C1038.3,104.1 1036.4,106 1036.4,108.3 L1036.4,176.1 C1036.4,207.8 1010.7,233.6 978.9,233.6 L938.8,233.6 L938.8,108.3 C938.8,106 936.9,104.1 934.6,104.1 L928.5,104.1 C926.2,104.1 924.3,106 924.3,108.3 L924.3,248.1 L981.9,248.1 L981.9,248 C1020.3,246.4 1050.9,214.8 1050.9,176.1 L1050.9,108.3 L1050.9,108.3 Z M834.9,104.1 C795.1,104.1 762.9,136.3 762.9,176.1 L762.9,243.9 C762.9,246.2 764.8,248.1 767.1,248.1 L773.2,248.1 C775.5,248.1 777.4,246.2 777.4,243.9 L777.4,176.1 C777.4,144.4 803.1,118.6 834.9,118.6 C865.2,118.6 890.1,142.1 892.2,171.9 C892.2,174.2 894.1,176.1 896.4,176.1 L902.5,176.1 C904.8,176.1 906.7,174.2 906.7,171.9 C904.6,134.1 873.2,104.1 834.9,104.1 L834.9,104.1 Z M1301.8,104.1 C1262,104.1 1229.8,136.3 1229.8,176.1 L1229.8,243.9 C1229.8,246.2 1231.7,248.1 1234,248.1 L1240.1,248.1 C1242.4,248.1 1244.3,246.2 1244.3,243.9 L1244.3,176.1 C1244.3,144.4 1270,118.6 1301.8,118.6 C1332.1,118.6 1357,142.1 1359.1,171.9 C1359.1,174.2 1361,176.1 1363.3,176.1 L1369.4,176.1 C1371.7,176.1 1373.6,174.2 1373.6,171.9 C1371.5,134.1 1340.1,104.1 1301.8,104.1 L1301.8,104.1 Z M1384.2,126.4 L1381,126.4 L1381,106.3 L1373.3,106.3 L1373.3,103.3 L1391.9,103.3 L1391.9,106.3 L1384.2,106.3 L1384.2,126.4 L1384.2,126.4 Z M1417.8,108.4 L1409.9,126.4 L1407,126.4 L1399.2,108.4 L1399.2,126.4 L1396,126.4 L1396,103.3 L1400.3,103.3 L1408.4,122.1 L1416.6,103.3 L1420.9,103.3 L1420.9,126.4 L1417.7,126.4 L1417.8,108.4 L1417.8,108.4 Z" id="Shape"></path>
        </g>
    </g>
</svg>